# xmcd CD database file
# Copyright (C) 1995-1998 Ti Kan
#
# Track frame offsets:
#	150
#	17729
#	34701
#	52435
#	69834
#	87407
#	104592
#	123057
#	138035
#	155582
#	172645
#	190263
#	208411
#	225627
#	243136
#
# Disc length: 3480 seconds
#
# Revision: 1
# Processed by: cddbd v1.5.1PL0 Copyright (c) Steve Scherf et al.
# Submitted via: CDex 1.30Release
#
DISCID=c40d960f
DTITLE=Stefan Lasch - Changes
DYEAR=1900
DGENRE=Country
TTITLE0=Whish I Didn't Know Now
TTITLE1=You're In My Heart
TTITLE2=Five Piece Band
TTITLE3=Rhythm Of My Heart
TTITLE4=Little Rock
TTITLE5=Danny Boy
TTITLE6=What I Mean To Say
TTITLE7=Hooked On Elvis
TTITLE8=Too Old To Grow Up Now
TTITLE9=Billy Does Your Bulldog Bite
TTITLE10=Brandy
TTITLE11=All I Need To Know
TTITLE12=Rock This Town
TTITLE13=Western Skies
TTITLE14=Colors Of The Wind
EXTD=ID3G:   2
EXTT0=
EXTT1=
EXTT2=
EXTT3=
EXTT4=
EXTT5=
EXTT6=
EXTT7=
EXTT8=
EXTT9=
EXTT10=
EXTT11=
EXTT12=
EXTT13=
EXTT14=
PLAYORDER=
